<?xml version="1.0" encoding="UTF-8"?>
<!DOCTYPE svg PUBLIC "-//W3C//DTD SVG 1.1//EN" "http://www.w3.org/Graphics/SVG/1.1/DTD/svg11.dtd">
<!-- Creator: CorelDRAW -->
<svg xmlns="http://www.w3.org/2000/svg" xml:space="preserve" width="206.086mm" height="210.605mm" version="1.1" style="shape-rendering:geometricPrecision; text-rendering:geometricPrecision; image-rendering:optimizeQuality; fill-rule:evenodd; clip-rule:evenodd"
viewBox="0 0 4445.77 4543.27"
 xmlns:xlink="http://www.w3.org/1999/xlink"
 xmlns:xodm="http://www.corel.com/coreldraw/odm/2003">
 <defs>
  <style type="text/css">
   <![CDATA[
    .fil1 {fill:#34A853}
    .fil2 {fill:#4285F4}
    .fil0 {fill:#EA4335}
    .fil3 {fill:#FBBC05}
   ]]>
  </style>
 </defs>
 <g id="Layer_x0020_1">
  <metadata id="CorelCorpID_0Corel-Layer"/>
  <g id="_2792866612208">
   <path class="fil0" d="M231.79 1265.24l712.85 544.94c24.28,19.12 29.76,20.53 51.12,35.81 54.69,-115.08 40.63,-123.02 130.32,-275.96 365.61,-623.41 1239.72,-839.77 1859.03,-431.3 46.13,30.42 84.2,61.16 124.32,88.26l658.35 -658.15c-41.84,-62.82 -320.54,-241 -388.97,-279.92 -507.07,-288.34 -1081.2,-357.2 -1657.48,-222.99 -590.12,137.43 -1057,506.86 -1367.14,983.37 -21.54,33.09 -44.1,67.56 -63.14,104.05 -17.43,33.41 -40.67,83.85 -59.27,111.87z"/>
   <path class="fil1" d="M231.94 3277.61c474.17,972.5 1570.41,1475.63 2658.93,1182.62 179.36,-48.28 323.44,-118.38 472.81,-196.31 111.26,-58.05 331.26,-215.93 389.61,-287.17l-275.7 -211.77c-52.15,-38.16 -426.34,-335.71 -451.5,-344.75 -107.72,51.68 -118.95,75.03 -269.01,123.26 -332.47,106.87 -698.41,93.33 -1009.04,-34.18 -223.39,-91.7 -418.55,-256.17 -547.64,-425.96 -135.87,-178.71 -130.52,-236.87 -204.36,-386.41 -34.77,16.49 -583.86,446.53 -668.72,508.31 -29.39,21.4 -67.45,57.15 -95.38,72.36z"/>
   <path class="fil2" d="M3026.1 3420.23c25.15,9.04 399.34,306.59 451.5,344.75l275.7 211.77c67.88,-29.44 267.83,-290.93 328.11,-387.1 98,-156.37 165.53,-290.88 232.25,-482.51 113.41,-325.75 189.42,-936.47 76.45,-1251.08 -623.09,0 -1246.18,0 -1869.26,0 -63.36,0 -127.34,0.88 -190.62,-0.35 -47.83,-0.92 -56.71,-11.38 -59.7,27.86 -2,26.26 1,71.29 1,99.93 0.05,250.44 0,500.88 -0,751.32l1218.86 1.72c-39.11,252.18 -192.76,480.36 -383.64,624.11 -24.14,18.18 -64.94,41.68 -80.64,59.58z"/>
   <path class="fil3" d="M231.94 3277.61c27.93,-15.2 65.99,-50.96 95.38,-72.36 84.87,-61.78 633.95,-491.83 668.72,-508.31 -35.05,-155.86 -65.84,-248.4 -65.87,-424.4 -0.03,-179.6 32.11,-268.81 65.59,-426.55 -21.37,-15.28 -26.85,-16.7 -51.12,-35.81l-712.85 -544.94c-141.25,295.21 -232.16,627.34 -231.79,1007.3 0.38,397.9 90.14,693.43 231.94,1005.07z"/>
  </g>
 </g>
</svg>
